<?xml version="1.0" encoding="UTF-8"?>
<svg version="1.1" xmlns="http://www.w3.org/2000/svg" width="90" height="90">
<path d="M0 0 C29.7 0 59.4 0 90 0 C90 29.7 90 59.4 90 90 C60.3 90 30.6 90 0 90 C0 60.3 0 30.6 0 0 Z " fill="#EDF2FB" transform="translate(0,0)"/>
<path d="M0 0 C2.9375 0.1875 2.9375 0.1875 3.9375 1.1875 C4.1875 3.5625 4.1875 3.5625 3.9375 6.1875 C3.421875 6.6825 2.90625 7.1775 2.375 7.6875 C1.900625 8.1825 1.42625 8.6775 0.9375 9.1875 C1.16793864 11.84216049 1.16793864 11.84216049 1.9375 14.1875 C0.6175 14.1875 -0.7025 14.1875 -2.0625 14.1875 C-3.0525 14.5175 -4.0425 14.8475 -5.0625 15.1875 C-4.8459375 15.78175781 -4.629375 16.37601563 -4.40625 16.98828125 C-1.27262281 26.31662515 -0.59146702 34.71602516 -4.74609375 43.8359375 C-9.42042075 52.18592222 -15.94059598 57.0454714 -25.1015625 59.80078125 C-32.98448974 61.35538244 -40.31369961 59.93410347 -47.23046875 55.93359375 C-54.11531443 51.19299644 -57.80925858 45.17715954 -60.0625 37.1875 C-61.07235762 28.21571234 -60.55721775 20.56064452 -55.0625 13.1875 C-49.387269 6.87569366 -43.73466588 2.73140632 -35.2109375 1.9140625 C-26.9393684 1.64183364 -19.54393664 2.74309322 -13.0625 8.1875 C-12.4025 8.1875 -11.7425 8.1875 -11.0625 8.1875 C-11.5575 5.2175 -11.5575 5.2175 -12.0625 2.1875 C-9.72916667 2.1875 -7.39583333 2.1875 -5.0625 2.1875 C-3.0625 0.1875 -3.0625 0.1875 0 0 Z " fill="#152753" transform="translate(73.0625,15.8125)"/>
<path d="M0 0 C1.27787132 -0.00786278 1.27787132 -0.00786278 2.58155823 -0.0158844 C4.38289297 -0.02230629 6.18426964 -0.02096542 7.9855957 -0.01245117 C10.74050714 -0.00394761 13.49334072 -0.03268794 16.24804688 -0.06445312 C17.9986973 -0.06606541 19.74935139 -0.06548708 21.5 -0.0625 C22.32302109 -0.07373398 23.14604218 -0.08496796 23.9940033 -0.09654236 C27.79727402 -0.05025645 29.7151986 0.0000499 32.86743164 2.27319336 C34.31640625 4.43359375 34.31640625 4.43359375 34.31640625 7.49609375 C33.12806514 10.98684575 32.51974409 11.68339834 29.31640625 13.43359375 C26.46036729 13.7383091 23.82800474 13.8779875 20.97265625 13.8671875 C19.76349548 13.87505028 19.76349548 13.87505028 18.52990723 13.8830719 C16.82870636 13.88948403 15.12746111 13.88816554 13.42626953 13.87963867 C10.82504351 13.87112203 8.22600951 13.899909 5.625 13.93164062 C3.97005274 13.93325264 2.3151016 13.9326751 0.66015625 13.9296875 C-0.11598022 13.94092148 -0.8921167 13.95215546 -1.69177246 13.96372986 C-5.23294036 13.91807073 -7.29045199 13.72356274 -10.17773438 11.59399414 C-12.21025683 8.67800983 -12.20190716 6.9136981 -11.68359375 3.43359375 C-8.56302019 -0.58964616 -4.72972863 -0.0168291 0 0 Z " fill="#ECF1FA" transform="translate(30.68359375,35.56640625)"/>
<path d="M0 0 C3.40312738 1.05875074 6.01353231 2.00902154 9 4 C8.125 8.75 8.125 8.75 7 11 C16.24 11 25.48 11 35 11 C33.68 10.01 32.36 9.02 31 8 C31.1875 5.625 31.1875 5.625 32 3 C34.88395625 1.23758229 36.45702944 0.92760393 39.8125 1.375 C40.534375 1.58125 41.25625 1.7875 42 2 C42.8125 4.6875 42.8125 4.6875 43 8 C40.2530151 11.73755497 38.72270841 12.88306933 34.09936523 13.63110352 C32.58599914 13.65717599 31.07196067 13.65493113 29.55859375 13.62890625 C28.75390152 13.63131821 27.94920929 13.63373016 27.12013245 13.63621521 C25.42484593 13.63523872 23.72952675 13.62189208 22.03442383 13.59692383 C19.44176941 13.56255659 16.85251493 13.57628638 14.25976562 13.59570312 C12.60936052 13.58880571 10.95896419 13.57913426 9.30859375 13.56640625 C8.53559433 13.57136612 7.76259491 13.57632599 6.96617126 13.58143616 C3.43942814 13.50432918 1.37924512 13.2806347 -1.49194336 11.15600586 C-3.52926807 8.24332746 -3.51824667 6.47965623 -3 3 C-1.5 1.125 -1.5 1.125 0 0 Z " fill="#B0B9CC" transform="translate(22,36)"/>
<path d="M0 0 C3.40312738 1.05875074 6.01353231 2.00902154 9 4 C8.45276317 7.37462715 7.9451 9.08235 6 12 C2.8694571 12.39964378 0.86916239 12.52149743 -1.875 10.875 C-3.52854531 8.11909116 -3.39365568 6.14924548 -3 3 C-1.5 1.125 -1.5 1.125 0 0 Z " fill="#D5DCE9" transform="translate(22,36)"/>
<path d="M0 0 C2.475 0.99 2.475 0.99 5 2 C4.67 3.65 4.34 5.3 4 7 C2.02 7 0.04 7 -2 7 C-2.125 4.625 -2.125 4.625 -2 2 C-1.34 1.34 -0.68 0.68 0 0 Z " fill="#2A3A63" transform="translate(26,38)"/>
<path d="M0 0 C1.2065625 0.0309375 1.2065625 0.0309375 2.4375 0.0625 C2.81968767 1.71864657 3.15145102 3.38707024 3.4375 5.0625 C2.4375 6.0625 2.4375 6.0625 -0.125 6.125 C-1.3315625 6.0940625 -1.3315625 6.0940625 -2.5625 6.0625 C-2.94468767 4.40635343 -3.27645102 2.73792976 -3.5625 1.0625 C-2.5625 0.0625 -2.5625 0.0625 0 0 Z " fill="#1D2E59" transform="translate(56.5625,38.9375)"/>
</svg>
