<svg version="1.1" id="Layer_1" xmlns="http://www.w3.org/2000/svg" xmlns:xlink="http://www.w3.org/1999/xlink" x="0px" y="0px"
	 width="100%" viewBox="0 0 840 840" enable-background="new 0 0 840 840" xml:space="preserve">
<path fill="#0A0C10" opacity="1.000000" stroke="none" 
	d="
M377.000000,841.000000 
	C251.333374,841.000000 126.166740,841.000000 1.000084,841.000000 
	C1.000056,561.000122 1.000056,281.000244 1.000028,1.000272 
	C280.999786,1.000181 560.999573,1.000181 840.999512,1.000091 
	C840.999695,280.999725 840.999695,560.999451 840.999878,840.999573 
	C686.500000,841.000000 532.000000,841.000000 377.000000,841.000000 
M168.221893,438.641998 
	C162.440628,438.641998 156.659363,438.641998 150.195160,438.641998 
	C150.195160,453.212830 150.195160,467.180206 150.195160,482.328125 
	C136.202103,458.115326 106.323959,465.449829 96.586395,482.166107 
	C91.458481,490.969147 89.492546,500.425354 89.388618,510.343506 
	C89.264641,522.175232 91.279076,533.459351 98.462608,543.427734 
	C110.103233,559.581116 138.887375,562.136414 148.990509,542.385620 
	C149.213501,541.949768 149.819962,541.710022 151.101166,540.717529 
	C151.101166,546.074463 151.101166,550.441101 151.101166,554.715027 
	C158.958160,554.715027 166.214340,554.715027 173.694397,554.715027 
	C173.694397,516.023560 173.694397,477.622498 173.694397,438.925049 
	C172.093643,438.825562 170.621002,438.734039 168.221893,438.641998 
M244.360428,550.447754 
	C244.467834,551.886047 244.575256,553.324402 244.674347,554.651245 
	C252.199356,554.651245 259.268677,554.651245 266.310944,554.651245 
	C266.310944,534.026367 266.525635,513.754333 266.227203,493.489807 
	C266.058960,482.065765 259.431763,474.410858 249.272079,470.413635 
	C234.866653,464.745911 220.261169,464.883911 206.326828,472.201416 
	C199.077148,476.008514 194.042557,481.959076 191.999954,490.510651 
	C198.022354,491.488953 203.629669,492.202240 209.137909,493.379272 
	C211.828857,493.954254 213.137238,493.463501 214.712570,491.049408 
	C219.309753,484.004791 230.678009,481.665436 237.929153,485.887024 
	C241.998215,488.255981 243.488770,491.969391 242.983978,496.458801 
	C242.504349,500.724640 238.916290,501.290131 235.654083,501.948669 
	C233.051636,502.473999 230.349182,502.519745 227.759460,503.089233 
	C219.045639,505.005371 209.973114,506.073853 201.765869,509.311920 
	C191.501343,513.361633 188.531189,522.761597 189.209503,533.171631 
	C189.879395,543.452576 195.165848,550.902100 204.942902,554.153809 
	C219.862534,559.115845 233.453430,557.626221 244.359940,542.559326 
	C244.359940,545.783325 244.359940,547.679260 244.360428,550.447754 
M348.721954,386.276123 
	C349.481812,385.380798 350.241669,384.485443 351.907196,382.522980 
	C351.907196,387.519226 351.907196,391.088226 351.907196,394.662964 
	C359.491180,394.662964 366.554077,394.662964 373.951233,394.662964 
	C373.951233,392.516296 373.955750,390.709045 373.950531,388.901825 
	C373.898224,370.738068 374.084778,352.569244 373.699738,334.412506 
	C373.472046,323.673645 368.067261,315.544556 358.221436,311.225403 
	C342.883514,304.496887 327.404907,304.649902 312.573151,312.778320 
	C305.851318,316.462158 301.272644,322.348877 299.179138,330.467529 
	C305.016418,331.421692 310.589203,332.156433 316.075867,333.303284 
	C318.845520,333.882202 320.368134,333.622223 322.089111,330.919647 
	C326.555542,323.905762 338.282318,321.659058 345.353088,325.987793 
	C349.383728,328.455292 350.756500,332.219757 350.146759,336.689606 
	C349.564667,340.956696 345.893188,341.344330 342.655182,341.988464 
	C340.048096,342.507080 337.360168,342.612976 334.746094,343.104095 
	C327.242798,344.513824 319.442230,345.138763 312.330444,347.675568 
	C295.487183,353.683624 290.886505,374.448486 302.564911,387.928528 
	C311.639191,398.402740 337.742279,400.806671 348.721954,386.276123 
M626.833069,366.373077 
	C625.373657,376.751740 627.916565,385.523499 637.025879,391.627716 
	C643.244873,395.795166 650.284485,396.792816 657.526367,396.537354 
	C667.425110,396.188202 675.382812,392.031219 681.782043,383.726746 
	C681.782043,387.396118 681.782043,391.065521 681.782043,394.627136 
	C689.573792,394.627136 696.633301,394.627136 703.835632,394.627136 
	C703.835632,374.443207 704.058777,354.632996 703.747375,334.831207 
	C703.575745,323.918793 698.221802,315.591156 688.160828,311.195557 
	C672.817993,304.492340 657.345459,304.657104 642.531311,312.806702 
	C635.824463,316.496277 631.243286,322.374390 629.187256,330.468536 
	C635.205566,331.457886 640.940308,332.253082 646.603699,333.400696 
	C649.039429,333.894226 650.325195,333.623322 651.816711,331.299164 
	C656.418457,324.128601 667.562012,321.623840 674.944519,325.745575 
	C679.253845,328.151520 680.789001,332.017303 680.142212,336.709076 
	C679.554871,340.970337 675.872864,341.336304 672.639282,341.993347 
	C670.197937,342.489380 667.684570,342.621124 665.229736,343.062164 
	C657.877136,344.383026 650.354492,345.164795 643.239441,347.296234 
	C634.411560,349.940704 628.301636,355.830627 626.833069,366.373077 
M356.470673,507.836182 
	C337.597015,514.683228 338.170624,539.807251 348.484772,548.935547 
	C355.453613,555.103149 363.698090,556.816467 372.556580,556.533752 
	C382.458740,556.217712 390.375641,551.979126 396.447723,542.351318 
	C396.681244,547.416992 396.850677,551.092896 397.012878,554.611938 
	C404.604584,554.611938 411.664093,554.611938 418.869263,554.611938 
	C418.869263,534.571228 419.065552,514.920227 418.792786,495.275787 
	C418.638641,484.174988 413.387421,475.645996 403.106964,471.170441 
	C387.753235,464.486176 372.275787,464.664764 357.474823,472.845856 
	C350.785492,476.543365 346.180634,482.401398 344.227966,490.435425 
	C350.750305,491.557434 356.938721,492.712616 363.165833,493.594971 
	C364.093628,493.726471 365.534332,492.825531 366.176483,491.977325 
	C371.472931,484.981262 379.185913,482.253998 387.238495,484.708832 
	C392.757935,486.391449 395.706512,490.419922 395.288849,495.807495 
	C394.863922,501.289459 390.447144,501.444122 386.567657,502.169983 
	C376.778564,504.001495 366.974640,505.753479 356.470673,507.836182 
M565.989258,538.856873 
	C554.194885,536.836487 547.751099,529.035828 548.837952,517.406738 
	C568.330933,517.406738 587.893799,517.406738 608.041687,517.406738 
	C607.712646,512.310852 607.561279,507.850616 607.113831,503.420227 
	C605.519531,487.633514 598.443909,475.183044 583.109802,469.672241 
	C567.346802,464.007294 551.597900,464.893311 538.736389,476.932159 
	C523.881836,490.836639 522.430359,508.677277 527.018555,527.245544 
	C530.893127,542.925415 541.490662,552.312256 557.229431,555.628723 
	C566.682495,557.620605 576.212219,557.084534 585.280334,553.833435 
	C595.332886,550.229370 602.961670,543.831909 606.106445,532.697693 
	C599.716370,531.473511 593.869568,530.241577 587.973999,529.321350 
	C586.839172,529.144226 584.920898,529.828125 584.370300,530.729431 
	C580.292480,537.404663 574.100952,539.234802 565.989258,538.856873 
M278.382965,324.253052 
	C272.579559,304.895050 237.499603,297.068817 223.730469,323.114471 
	C223.730469,318.108246 223.730469,313.102020 223.730469,308.096863 
	C215.894958,308.096863 208.821884,308.096863 201.816360,308.096863 
	C201.816360,337.217072 201.816360,365.965210 201.816360,394.735687 
	C209.619064,394.735687 217.051163,394.735687 224.956924,394.735687 
	C224.956924,392.692230 224.955917,390.897217 224.957092,389.102173 
	C224.966873,374.105957 224.895584,359.109070 225.022064,344.113861 
	C225.083801,336.794495 227.640930,330.706238 234.891739,327.644440 
	C245.769073,323.051300 256.224976,328.632812 257.236420,340.305634 
	C258.110962,350.398102 257.674255,360.607117 257.748535,370.765137 
	C257.806793,378.734375 257.760223,386.704407 257.760223,394.759033 
	C265.701111,394.759033 273.134552,394.759033 280.873199,394.759033 
	C280.946808,393.576996 281.058289,392.619751 281.058228,391.662506 
	C281.057465,373.833649 281.190918,356.002655 280.927826,338.177490 
	C280.862610,333.758789 279.503265,329.359161 278.382965,324.253052 
M450.108826,385.447021 
	C450.108826,388.540070 450.108826,391.633118 450.108826,394.745911 
	C458.278198,394.745911 465.707001,394.745911 473.068848,394.745911 
	C473.068848,373.893524 473.622467,353.280060 472.868958,332.714508 
	C472.388519,319.601562 463.198212,310.025635 451.083984,307.326050 
	C437.466156,304.291382 426.233368,308.959778 418.919647,320.679352 
	C418.421539,321.477509 417.837067,322.221741 417.292755,322.991089 
	C416.965942,322.956543 416.639099,322.921997 416.312286,322.887482 
	C416.312286,318.009216 416.312286,313.130981 416.312286,308.040802 
	C408.518585,308.040802 401.476685,308.040802 394.237701,308.040802 
	C394.237701,337.072327 394.237701,365.793427 394.237701,394.759399 
	C401.909454,394.759399 409.339081,394.759399 417.355927,394.759399 
	C417.355927,392.561829 417.337402,390.438934 417.358856,388.316437 
	C417.518646,372.506714 417.456421,356.689789 417.957428,340.890778 
	C418.177979,333.935181 422.264862,329.103333 429.018372,327.028137 
	C440.341644,323.548737 449.718506,330.115753 449.969147,342.002960 
	C450.267426,356.150940 450.083710,370.309021 450.108826,385.447021 
M476.971863,466.849060 
	C467.145782,466.261963 457.677673,467.435913 449.140961,472.794067 
	C440.961334,477.928009 437.047211,485.365417 437.523590,495.039917 
	C438.012054,504.960602 443.300903,511.636810 452.270844,515.062927 
	C458.126740,517.299622 464.415131,518.393433 470.490082,520.070496 
	C475.276062,521.391724 480.311584,522.238037 484.729309,524.353882 
	C490.055054,526.904602 490.121857,533.211548 485.435089,536.556702 
	C477.144592,542.473938 462.993103,539.154480 458.072327,530.335144 
	C457.414429,529.156067 455.367828,527.889221 454.132751,528.040222 
	C447.888367,528.803833 441.699707,530.023071 435.257446,531.122375 
	C436.303741,537.243408 438.814056,542.093567 443.060364,546.100891 
	C452.630829,555.132751 464.514191,556.961426 476.886139,556.556641 
	C487.778107,556.200134 498.018646,553.366028 505.873138,545.163330 
	C517.749084,532.760925 514.112244,514.481995 498.390930,507.851410 
	C494.142670,506.059601 489.518005,505.118042 485.017944,503.975861 
	C478.745117,502.383698 472.228638,501.517731 466.182861,499.328888 
	C459.876526,497.045746 459.028534,489.887848 464.154510,486.308441 
	C470.201508,482.085907 483.874878,481.902832 488.447693,490.774384 
	C488.987946,491.822601 490.666168,493.105194 491.641937,492.974396 
	C497.821594,492.145660 503.951965,490.949524 510.777344,489.755859 
	C509.174866,486.358093 508.212616,483.489349 506.602509,481.047943 
	C499.817474,470.760071 489.466736,467.483765 476.971863,466.849060 
M698.854126,469.185333 
	C696.168579,470.496368 693.304749,471.536896 690.829834,473.167664 
	C682.384460,478.732422 678.892273,486.707764 679.940430,496.737122 
	C680.889893,505.822998 686.187500,511.635254 694.236267,514.992676 
	C698.500000,516.771240 703.095459,517.782898 707.580139,518.996521 
	C713.822876,520.685913 720.328430,521.665405 726.301331,524.016174 
	C732.119690,526.306091 732.621094,532.850769 727.914429,536.422546 
	C719.955200,542.462646 705.283997,539.217468 700.469971,530.536133 
	C699.788452,529.307068 697.791809,527.883606 696.579590,528.027771 
	C690.335938,528.770142 684.149658,529.994446 677.992615,531.042236 
	C678.362061,536.821289 680.870667,541.813293 684.975281,545.796143 
	C694.443176,554.983398 706.322632,556.848755 718.703430,556.587341 
	C728.525146,556.379944 737.839966,553.955078 745.643860,547.504822 
	C760.708984,535.052673 757.397034,514.096252 739.198608,507.195251 
	C735.336548,505.730743 731.210022,504.938965 727.175903,503.958252 
	C721.041870,502.467041 714.695923,501.584015 708.823181,499.408356 
	C706.413574,498.515686 704.079712,495.148041 703.455322,492.495728 
	C703.031006,490.692993 705.117859,487.445221 706.986694,486.115631 
	C712.747009,482.017456 725.992249,481.924561 730.798828,490.852173 
	C731.384338,491.939606 733.364746,493.068726 734.533569,492.915833 
	C740.443054,492.142792 746.297913,490.952057 752.378479,489.871063 
	C750.758667,481.595398 746.269958,475.793579 739.395874,472.093536 
	C726.671692,465.244690 713.247620,465.380554 698.854126,469.185333 
M492.062775,335.671509 
	C489.321930,345.485870 489.009918,355.417145 491.449280,365.271606 
	C497.245636,388.687653 518.588074,401.092743 543.119385,395.540558 
	C558.787964,391.994293 569.589294,381.095367 570.951050,367.004456 
	C564.044800,365.701019 557.091064,364.388611 549.997375,363.049774 
	C549.448303,364.409180 548.959839,365.446625 548.603943,366.527740 
	C546.351074,373.371063 541.795410,377.381561 534.511108,378.060822 
	C526.631836,378.795502 520.866394,375.513824 517.476929,368.492706 
	C512.510681,358.205414 512.565857,347.505737 516.382690,336.972443 
	C519.015381,329.706879 524.279541,325.089783 532.506653,325.038818 
	C540.705872,324.988068 545.790039,329.266052 548.644470,336.750427 
	C549.042786,337.794769 550.705383,339.211029 551.581604,339.082642 
	C558.074219,338.131195 564.515930,336.832336 571.158142,335.608643 
	C569.835510,328.036499 566.769897,322.084900 561.697571,317.246277 
	C540.041077,296.587585 502.874573,306.051697 492.062775,335.671509 
M134.907516,273.545135 
	C125.709023,272.478027 116.892296,273.380859 109.308716,279.264221 
	C100.047935,286.448761 99.696198,296.889038 99.930901,307.946106 
	C94.584587,307.946106 89.693001,307.946106 84.877548,307.946106 
	C84.877548,314.030426 84.877548,319.476929 84.877548,325.649994 
	C89.985504,325.649994 94.850418,325.649994 100.120544,325.649994 
	C100.120544,349.123352 100.120544,371.865936 100.120544,394.719116 
	C107.979187,394.719116 115.385178,394.719116 123.244728,394.719116 
	C123.244728,392.644348 123.244690,390.850372 123.244728,389.056396 
	C123.245148,369.399292 123.316216,349.741699 123.179359,330.085541 
	C123.155380,326.642487 124.134148,325.278503 127.685448,325.474274 
	C132.123642,325.718964 136.585587,325.533081 141.334366,325.533081 
	C141.334366,319.356445 141.334366,313.806366 141.334366,307.726715 
	C136.440140,307.726715 131.807281,307.837036 127.185898,307.655334 
	C125.903229,307.604889 123.952278,307.029785 123.506325,306.112671 
	C120.939468,300.833954 125.188278,293.039368 131.029938,292.332367 
	C134.247284,291.942963 137.550430,292.262634 141.108597,292.262634 
	C142.354889,286.976929 143.672623,281.388153 145.088303,275.384064 
	C141.610214,274.758911 138.693420,274.234650 134.907516,273.545135 
M286.686584,467.716736 
	C283.948608,467.716736 281.210663,467.716736 278.494812,467.716736 
	C278.494812,474.024994 278.494812,479.454712 278.494812,485.290436 
	C282.458649,485.466827 286.176147,485.632263 290.244232,485.813263 
	C290.244232,491.493347 290.190918,496.628754 290.255035,501.762695 
	C290.398376,513.239807 290.338898,524.728394 290.872986,536.188477 
	C291.211670,543.455444 294.880981,549.328918 301.438263,552.655701 
	C311.311371,557.664795 321.591095,556.790039 332.429962,554.023438 
	C331.313751,548.115967 330.277710,542.632629 329.242004,537.151184 
	C327.646240,537.151184 326.489624,537.063782 325.349701,537.164917 
	C316.013000,537.993774 313.897186,536.165222 313.871643,527.010925 
	C313.837708,514.859131 313.853882,502.707184 313.872314,490.555359 
	C313.874725,488.973541 314.018951,487.391907 314.116791,485.421051 
	C319.666718,485.421051 324.619049,485.421051 329.824188,485.421051 
	C329.824188,479.407562 329.824188,473.815369 329.824188,467.717621 
	C324.604889,467.717621 319.505005,467.717621 313.877014,467.717621 
	C313.877014,460.645660 313.877014,454.062500 313.877014,447.243164 
	C305.800537,447.243164 298.265289,447.243164 290.239136,447.243164 
	C290.239136,453.017029 290.400177,458.484009 290.121338,463.928436 
	C290.054962,465.224152 288.517365,466.444489 286.686584,467.716736 
M615.609985,481.948120 
	C615.357849,484.362152 616.091064,485.734222 618.874573,485.558319 
	C621.626282,485.384369 624.397583,485.520294 627.646667,485.520294 
	C627.646667,488.288177 627.637085,490.250153 627.648193,492.211975 
	C627.728149,506.360382 627.740601,520.509766 627.929382,534.656738 
	C628.008179,540.558350 630.254578,545.720703 634.583313,549.771118 
	C641.969727,556.682495 660.248352,558.487122 669.559387,553.235962 
	C668.550293,547.961914 667.528503,542.621887 666.457214,537.023071 
	C664.655457,537.115356 663.192688,537.144836 661.738525,537.272278 
	C653.561523,537.988464 651.074707,535.810486 651.018799,527.658508 
	C650.961731,519.334778 651.005432,511.010406 651.005188,502.686340 
	C651.005005,497.076141 651.005127,491.465942 651.005127,485.345490 
	C656.748657,485.345490 661.830872,485.345490 666.969116,485.345490 
	C666.969116,479.248718 666.969116,473.691315 666.969116,467.600739 
	C661.541565,467.600739 656.456055,467.600739 650.906250,467.600739 
	C650.906250,460.489563 650.906250,453.906158 650.906250,447.138184 
	C642.999634,447.138184 635.573486,447.138184 627.646790,447.138184 
	C627.646790,450.485046 627.646790,453.622162 627.646790,456.759247 
	C627.646729,467.154358 627.646484,467.150452 617.614197,467.793457 
	C617.132629,467.824310 616.662231,468.028717 615.607422,468.302826 
	C615.607422,472.474304 615.607422,476.762543 615.609985,481.948120 
M723.998535,389.369751 
	C723.998535,391.135895 723.998535,392.902039 723.998535,394.712738 
	C732.053528,394.712738 739.469360,394.712738 746.880676,394.712738 
	C746.880676,355.920166 746.880676,317.416077 746.880676,278.889191 
	C739.131897,278.889191 731.849487,278.889191 723.998535,278.889191 
	C723.998535,315.546539 723.998535,351.972809 723.998535,389.369751 
M591.610168,307.741150 
	C587.798523,307.104523 587.803955,309.505035 587.809082,312.246613 
	C587.858276,338.529175 587.836426,364.811890 587.847412,391.094543 
	C587.847839,392.220978 587.969666,393.347382 588.043945,394.629333 
	C595.833435,394.629333 603.354614,394.629333 610.785156,394.629333 
	C610.785156,365.555664 610.785156,336.853149 610.785156,307.739136 
	C604.503662,307.739136 598.545959,307.739136 591.610168,307.741150 
M181.384323,382.491913 
	C181.384323,357.749725 181.384323,333.007568 181.384323,308.004761 
	C173.340683,308.004761 165.941040,308.004761 158.356918,308.004761 
	C158.356918,337.068939 158.356918,365.903625 158.356918,394.693298 
	C166.136826,394.693298 173.556854,394.693298 181.384338,394.693298 
	C181.384338,390.756592 181.384338,387.121826 181.384323,382.491913 
M161.584351,274.973907 
	C156.758774,279.840942 155.646118,284.873474 158.324783,289.716827 
	C160.966904,294.494080 166.597534,296.985901 172.425522,295.957092 
	C177.642349,295.036163 181.851395,290.725433 182.435791,285.558563 
	C182.946671,281.041656 181.312332,277.370728 177.587891,274.777466 
	C172.550568,271.270020 167.371689,271.328033 161.584351,274.973907 
M586.868408,282.791107 
	C586.968689,291.666565 592.433228,296.807220 600.982605,296.068634 
	C608.150024,295.449493 613.062134,289.365356 612.094604,282.305450 
	C611.376343,277.064758 606.558044,272.809021 600.669800,272.214691 
	C594.370422,271.578918 589.257935,275.213684 586.868408,282.791107 
z"/>
<path fill="#417FE9" opacity="1.000000" stroke="none" 
	d="
M168.685120,438.642242 
	C170.621002,438.734039 172.093643,438.825562 173.694397,438.925049 
	C173.694397,477.622498 173.694397,516.023560 173.694397,554.715027 
	C166.214340,554.715027 158.958160,554.715027 151.101166,554.715027 
	C151.101166,550.441101 151.101166,546.074463 151.101166,540.717529 
	C149.819962,541.710022 149.213501,541.949768 148.990509,542.385620 
	C138.887375,562.136414 110.103233,559.581116 98.462608,543.427734 
	C91.279076,533.459351 89.264641,522.175232 89.388618,510.343506 
	C89.492546,500.425354 91.458481,490.969147 96.586395,482.166107 
	C106.323959,465.449829 136.202103,458.115326 150.195160,482.328125 
	C150.195160,467.180206 150.195160,453.212830 150.195160,438.641998 
	C156.659363,438.641998 162.440628,438.641998 168.685120,438.642242 
M131.673828,537.689575 
	C140.069489,537.693604 145.460007,533.219910 148.312439,525.766907 
	C151.947189,516.269714 151.952835,506.521088 148.327713,497.016815 
	C145.372253,489.268188 139.426636,485.234467 132.034790,485.341522 
	C124.104919,485.456390 118.853561,489.684113 116.132385,496.793701 
	C112.373001,506.615784 112.391541,516.647644 116.306015,526.441895 
	C118.889069,532.904907 123.600098,537.043091 131.673828,537.689575 
z"/>
<path fill="#417FE9" opacity="1.000000" stroke="none" 
	d="
M244.360184,550.011475 
	C244.359940,547.679260 244.359940,545.783325 244.359940,542.559326 
	C233.453430,557.626221 219.862534,559.115845 204.942902,554.153809 
	C195.165848,550.902100 189.879395,543.452576 189.209503,533.171631 
	C188.531189,522.761597 191.501343,513.361633 201.765869,509.311920 
	C209.973114,506.073853 219.045639,505.005371 227.759460,503.089233 
	C230.349182,502.519745 233.051636,502.473999 235.654083,501.948669 
	C238.916290,501.290131 242.504349,500.724640 242.983978,496.458801 
	C243.488770,491.969391 241.998215,488.255981 237.929153,485.887024 
	C230.678009,481.665436 219.309753,484.004791 214.712570,491.049408 
	C213.137238,493.463501 211.828857,493.954254 209.137909,493.379272 
	C203.629669,492.202240 198.022354,491.488953 191.999954,490.510651 
	C194.042557,481.959076 199.077148,476.008514 206.326828,472.201416 
	C220.261169,464.883911 234.866653,464.745911 249.272079,470.413635 
	C259.431763,474.410858 266.058960,482.065765 266.227203,493.489807 
	C266.525635,513.754333 266.310944,534.026367 266.310944,554.651245 
	C259.268677,554.651245 252.199356,554.651245 244.674347,554.651245 
	C244.575256,553.324402 244.467834,551.886047 244.360184,550.011475 
M212.688080,534.340515 
	C217.106750,540.377502 225.171783,541.999390 233.271942,538.479980 
	C241.658798,534.835999 244.776779,527.271606 242.776871,515.196167 
	C239.401840,515.876648 236.035980,516.591431 232.655228,517.226990 
	C229.069427,517.901123 225.419662,518.298645 221.885712,519.172424 
	C213.630951,521.213379 210.932327,525.411011 212.688080,534.340515 
z"/>
<path fill="#4180E9" opacity="1.000000" stroke="none" 
	d="
M348.499512,386.547211 
	C337.742279,400.806671 311.639191,398.402740 302.564911,387.928528 
	C290.886505,374.448486 295.487183,353.683624 312.330444,347.675568 
	C319.442230,345.138763 327.242798,344.513824 334.746094,343.104095 
	C337.360168,342.612976 340.048096,342.507080 342.655182,341.988464 
	C345.893188,341.344330 349.564667,340.956696 350.146759,336.689606 
	C350.756500,332.219757 349.383728,328.455292 345.353088,325.987793 
	C338.282318,321.659058 326.555542,323.905762 322.089111,330.919647 
	C320.368134,333.622223 318.845520,333.882202 316.075867,333.303284 
	C310.589203,332.156433 305.016418,331.421692 299.179138,330.467529 
	C301.272644,322.348877 305.851318,316.462158 312.573151,312.778320 
	C327.404907,304.649902 342.883514,304.496887 358.221436,311.225403 
	C368.067261,315.544556 373.472046,323.673645 373.699738,334.412506 
	C374.084778,352.569244 373.898224,370.738068 373.950531,388.901825 
	C373.955750,390.709045 373.951233,392.516296 373.951233,394.662964 
	C366.554077,394.662964 359.491180,394.662964 351.907196,394.662964 
	C351.907196,391.088226 351.907196,387.519226 351.907196,382.522980 
	C350.241669,384.485443 349.481812,385.380798 348.499512,386.547211 
M341.384430,357.012848 
	C336.343811,358.044708 331.174469,358.670074 326.296539,360.215454 
	C320.706757,361.986298 318.403351,366.038971 318.986084,371.247070 
	C319.513489,375.960815 323.377167,379.325012 329.050049,380.010010 
	C344.210358,381.840607 353.902740,370.349518 349.890106,355.052979 
	C347.341980,355.674927 344.787140,356.298492 341.384430,357.012848 
z"/>
<path fill="#4180E9" opacity="1.000000" stroke="none" 
	d="
M626.868042,365.952393 
	C628.301636,355.830627 634.411560,349.940704 643.239441,347.296234 
	C650.354492,345.164795 657.877136,344.383026 665.229736,343.062164 
	C667.684570,342.621124 670.197937,342.489380 672.639282,341.993347 
	C675.872864,341.336304 679.554871,340.970337 680.142212,336.709076 
	C680.789001,332.017303 679.253845,328.151520 674.944519,325.745575 
	C667.562012,321.623840 656.418457,324.128601 651.816711,331.299164 
	C650.325195,333.623322 649.039429,333.894226 646.603699,333.400696 
	C640.940308,332.253082 635.205566,331.457886 629.187256,330.468536 
	C631.243286,322.374390 635.824463,316.496277 642.531311,312.806702 
	C657.345459,304.657104 672.817993,304.492340 688.160828,311.195557 
	C698.221802,315.591156 703.575745,323.918793 703.747375,334.831207 
	C704.058777,354.632996 703.835632,374.443207 703.835632,394.627136 
	C696.633301,394.627136 689.573792,394.627136 681.782043,394.627136 
	C681.782043,391.065521 681.782043,387.396118 681.782043,383.726746 
	C675.382812,392.031219 667.425110,396.188202 657.526367,396.537354 
	C650.284485,396.792816 643.244873,395.795166 637.025879,391.627716 
	C627.916565,385.523499 625.373657,376.751740 626.868042,365.952393 
M680.727905,361.349915 
	C680.727905,359.288696 680.727905,357.227478 680.727905,354.952271 
	C672.086914,356.764160 664.207642,358.016602 656.573059,360.146179 
	C650.668213,361.793182 648.296509,366.086578 649.005920,371.453949 
	C649.621399,376.110413 653.563660,379.414429 659.254944,380.019257 
	C670.421814,381.206146 680.745422,375.101074 680.727905,361.349915 
z"/>
<path fill="#4180E9" opacity="1.000000" stroke="none" 
	d="
M356.823669,507.686768 
	C366.974640,505.753479 376.778564,504.001495 386.567657,502.169983 
	C390.447144,501.444122 394.863922,501.289459 395.288849,495.807495 
	C395.706512,490.419922 392.757935,486.391449 387.238495,484.708832 
	C379.185913,482.253998 371.472931,484.981262 366.176483,491.977325 
	C365.534332,492.825531 364.093628,493.726471 363.165833,493.594971 
	C356.938721,492.712616 350.750305,491.557434 344.227966,490.435425 
	C346.180634,482.401398 350.785492,476.543365 357.474823,472.845856 
	C372.275787,464.664764 387.753235,464.486176 403.106964,471.170441 
	C413.387421,475.645996 418.638641,484.174988 418.792786,495.275787 
	C419.065552,514.920227 418.869263,534.571228 418.869263,554.611938 
	C411.664093,554.611938 404.604584,554.611938 397.012878,554.611938 
	C396.850677,551.092896 396.681244,547.416992 396.447723,542.351318 
	C390.375641,551.979126 382.458740,556.217712 372.556580,556.533752 
	C363.698090,556.816467 355.453613,555.103149 348.484772,548.935547 
	C338.170624,539.807251 337.597015,514.683228 356.823669,507.686768 
M369.959869,538.917419 
	C386.660492,544.112976 398.458679,533.067322 395.102692,515.069214 
	C387.177155,516.742432 379.186005,518.159180 371.355713,520.194519 
	C367.326569,521.241821 364.420929,524.085632 363.979401,528.690308 
	C363.550323,533.165100 365.276947,536.455750 369.959869,538.917419 
z"/>
<path fill="#4180EA" opacity="1.000000" stroke="none" 
	d="
M566.415100,538.892944 
	C574.100952,539.234802 580.292480,537.404663 584.370300,530.729431 
	C584.920898,529.828125 586.839172,529.144226 587.973999,529.321350 
	C593.869568,530.241577 599.716370,531.473511 606.106445,532.697693 
	C602.961670,543.831909 595.332886,550.229370 585.280334,553.833435 
	C576.212219,557.084534 566.682495,557.620605 557.229431,555.628723 
	C541.490662,552.312256 530.893127,542.925415 527.018555,527.245544 
	C522.430359,508.677277 523.881836,490.836639 538.736389,476.932159 
	C551.597900,464.893311 567.346802,464.007294 583.109802,469.672241 
	C598.443909,475.183044 605.519531,487.633514 607.113831,503.420227 
	C607.561279,507.850616 607.712646,512.310852 608.041687,517.406738 
	C587.893799,517.406738 568.330933,517.406738 548.837952,517.406738 
	C547.751099,529.035828 554.194885,536.836487 566.415100,538.892944 
M565.765991,484.286926 
	C554.639038,486.195831 548.823120,492.333649 548.853577,502.370178 
	C560.827026,502.370178 572.797607,502.370178 584.804810,502.370178 
	C583.722046,490.660400 578.444458,485.510376 565.765991,484.286926 
z"/>
<path fill="#417FE9" opacity="1.000000" stroke="none" 
	d="
M278.560883,324.601929 
	C279.503265,329.359161 280.862610,333.758789 280.927826,338.177490 
	C281.190918,356.002655 281.057465,373.833649 281.058228,391.662506 
	C281.058289,392.619751 280.946808,393.576996 280.873199,394.759033 
	C273.134552,394.759033 265.701111,394.759033 257.760223,394.759033 
	C257.760223,386.704407 257.806793,378.734375 257.748535,370.765137 
	C257.674255,360.607117 258.110962,350.398102 257.236420,340.305634 
	C256.224976,328.632812 245.769073,323.051300 234.891739,327.644440 
	C227.640930,330.706238 225.083801,336.794495 225.022064,344.113861 
	C224.895584,359.109070 224.966873,374.105957 224.957092,389.102173 
	C224.955917,390.897217 224.956924,392.692230 224.956924,394.735687 
	C217.051163,394.735687 209.619064,394.735687 201.816360,394.735687 
	C201.816360,365.965210 201.816360,337.217072 201.816360,308.096863 
	C208.821884,308.096863 215.894958,308.096863 223.730469,308.096863 
	C223.730469,313.102020 223.730469,318.108246 223.730469,323.114471 
	C237.499603,297.068817 272.579559,304.895050 278.560883,324.601929 
z"/>
<path fill="#4180EA" opacity="1.000000" stroke="none" 
	d="
M450.108826,384.954895 
	C450.083710,370.309021 450.267426,356.150940 449.969147,342.002960 
	C449.718506,330.115753 440.341644,323.548737 429.018372,327.028137 
	C422.264862,329.103333 418.177979,333.935181 417.957428,340.890778 
	C417.456421,356.689789 417.518646,372.506714 417.358856,388.316437 
	C417.337402,390.438934 417.355927,392.561829 417.355927,394.759399 
	C409.339081,394.759399 401.909454,394.759399 394.237701,394.759399 
	C394.237701,365.793427 394.237701,337.072327 394.237701,308.040802 
	C401.476685,308.040802 408.518585,308.040802 416.312286,308.040802 
	C416.312286,313.130981 416.312286,318.009216 416.312286,322.887482 
	C416.639099,322.921997 416.965942,322.956543 417.292755,322.991089 
	C417.837067,322.221741 418.421539,321.477509 418.919647,320.679352 
	C426.233368,308.959778 437.466156,304.291382 451.083984,307.326050 
	C463.198212,310.025635 472.388519,319.601562 472.868958,332.714508 
	C473.622467,353.280060 473.068848,373.893524 473.068848,394.745911 
	C465.707001,394.745911 458.278198,394.745911 450.108826,394.745911 
	C450.108826,391.633118 450.108826,388.540070 450.108826,384.954895 
z"/>
<path fill="#417FE9" opacity="1.000000" stroke="none" 
	d="
M477.408264,466.874634 
	C489.466736,467.483765 499.817474,470.760071 506.602509,481.047943 
	C508.212616,483.489349 509.174866,486.358093 510.777344,489.755859 
	C503.951965,490.949524 497.821594,492.145660 491.641937,492.974396 
	C490.666168,493.105194 488.987946,491.822601 488.447693,490.774384 
	C483.874878,481.902832 470.201508,482.085907 464.154510,486.308441 
	C459.028534,489.887848 459.876526,497.045746 466.182861,499.328888 
	C472.228638,501.517731 478.745117,502.383698 485.017944,503.975861 
	C489.518005,505.118042 494.142670,506.059601 498.390930,507.851410 
	C514.112244,514.481995 517.749084,532.760925 505.873138,545.163330 
	C498.018646,553.366028 487.778107,556.200134 476.886139,556.556641 
	C464.514191,556.961426 452.630829,555.132751 443.060364,546.100891 
	C438.814056,542.093567 436.303741,537.243408 435.257446,531.122375 
	C441.699707,530.023071 447.888367,528.803833 454.132751,528.040222 
	C455.367828,527.889221 457.414429,529.156067 458.072327,530.335144 
	C462.993103,539.154480 477.144592,542.473938 485.435089,536.556702 
	C490.121857,533.211548 490.055054,526.904602 484.729309,524.353882 
	C480.311584,522.238037 475.276062,521.391724 470.490082,520.070496 
	C464.415131,518.393433 458.126740,517.299622 452.270844,515.062927 
	C443.300903,511.636810 438.012054,504.960602 437.523590,495.039917 
	C437.047211,485.365417 440.961334,477.928009 449.140961,472.794067 
	C457.677673,467.435913 467.145782,466.261963 477.408264,466.874634 
z"/>
<path fill="#4180E9" opacity="1.000000" stroke="none" 
	d="
M699.240417,469.086151 
	C713.247620,465.380554 726.671692,465.244690 739.395874,472.093536 
	C746.269958,475.793579 750.758667,481.595398 752.378479,489.871063 
	C746.297913,490.952057 740.443054,492.142792 734.533569,492.915833 
	C733.364746,493.068726 731.384338,491.939606 730.798828,490.852173 
	C725.992249,481.924561 712.747009,482.017456 706.986694,486.115631 
	C705.117859,487.445221 703.031006,490.692993 703.455322,492.495728 
	C704.079712,495.148041 706.413574,498.515686 708.823181,499.408356 
	C714.695923,501.584015 721.041870,502.467041 727.175903,503.958252 
	C731.210022,504.938965 735.336548,505.730743 739.198608,507.195251 
	C757.397034,514.096252 760.708984,535.052673 745.643860,547.504822 
	C737.839966,553.955078 728.525146,556.379944 718.703430,556.587341 
	C706.322632,556.848755 694.443176,554.983398 684.975281,545.796143 
	C680.870667,541.813293 678.362061,536.821289 677.992615,531.042236 
	C684.149658,529.994446 690.335938,528.770142 696.579590,528.027771 
	C697.791809,527.883606 699.788452,529.307068 700.469971,530.536133 
	C705.283997,539.217468 719.955200,542.462646 727.914429,536.422546 
	C732.621094,532.850769 732.119690,526.306091 726.301331,524.016174 
	C720.328430,521.665405 713.822876,520.685913 707.580139,518.996521 
	C703.095459,517.782898 698.500000,516.771240 694.236267,514.992676 
	C686.187500,511.635254 680.889893,505.822998 679.940430,496.737122 
	C678.892273,486.707764 682.384460,478.732422 690.829834,473.167664 
	C693.304749,471.536896 696.168579,470.496368 699.240417,469.086151 
z"/>
<path fill="#4180EA" opacity="1.000000" stroke="none" 
	d="
M492.161774,335.282532 
	C502.874573,306.051697 540.041077,296.587585 561.697571,317.246277 
	C566.769897,322.084900 569.835510,328.036499 571.158142,335.608643 
	C564.515930,336.832336 558.074219,338.131195 551.581604,339.082642 
	C550.705383,339.211029 549.042786,337.794769 548.644470,336.750427 
	C545.790039,329.266052 540.705872,324.988068 532.506653,325.038818 
	C524.279541,325.089783 519.015381,329.706879 516.382690,336.972443 
	C512.565857,347.505737 512.510681,358.205414 517.476929,368.492706 
	C520.866394,375.513824 526.631836,378.795502 534.511108,378.060822 
	C541.795410,377.381561 546.351074,373.371063 548.603943,366.527740 
	C548.959839,365.446625 549.448303,364.409180 549.997375,363.049774 
	C557.091064,364.388611 564.044800,365.701019 570.951050,367.004456 
	C569.589294,381.095367 558.787964,391.994293 543.119385,395.540558 
	C518.588074,401.092743 497.245636,388.687653 491.449280,365.271606 
	C489.009918,355.417145 489.321930,345.485870 492.161774,335.282532 
z"/>
<path fill="#4180EA" opacity="1.000000" stroke="none" 
	d="
M135.342072,273.627747 
	C138.693420,274.234650 141.610214,274.758911 145.088303,275.384064 
	C143.672623,281.388153 142.354889,286.976929 141.108597,292.262634 
	C137.550430,292.262634 134.247284,291.942963 131.029938,292.332367 
	C125.188278,293.039368 120.939468,300.833954 123.506325,306.112671 
	C123.952278,307.029785 125.903229,307.604889 127.185898,307.655334 
	C131.807281,307.837036 136.440140,307.726715 141.334366,307.726715 
	C141.334366,313.806366 141.334366,319.356445 141.334366,325.533081 
	C136.585587,325.533081 132.123642,325.718964 127.685448,325.474274 
	C124.134148,325.278503 123.155380,326.642487 123.179359,330.085541 
	C123.316216,349.741699 123.245148,369.399292 123.244728,389.056396 
	C123.244690,390.850372 123.244728,392.644348 123.244728,394.719116 
	C115.385178,394.719116 107.979187,394.719116 100.120544,394.719116 
	C100.120544,371.865936 100.120544,349.123352 100.120544,325.649994 
	C94.850418,325.649994 89.985504,325.649994 84.877548,325.649994 
	C84.877548,319.476929 84.877548,314.030426 84.877548,307.946106 
	C89.693001,307.946106 94.584587,307.946106 99.930901,307.946106 
	C99.696198,296.889038 100.047935,286.448761 109.308716,279.264221 
	C116.892296,273.380859 125.709023,272.478027 135.342072,273.627747 
z"/>
<path fill="#417FE8" opacity="1.000000" stroke="none" 
	d="
M287.171539,467.708130 
	C288.517365,466.444489 290.054962,465.224152 290.121338,463.928436 
	C290.400177,458.484009 290.239136,453.017029 290.239136,447.243164 
	C298.265289,447.243164 305.800537,447.243164 313.877014,447.243164 
	C313.877014,454.062500 313.877014,460.645660 313.877014,467.717621 
	C319.505005,467.717621 324.604889,467.717621 329.824188,467.717621 
	C329.824188,473.815369 329.824188,479.407562 329.824188,485.421051 
	C324.619049,485.421051 319.666718,485.421051 314.116791,485.421051 
	C314.018951,487.391907 313.874725,488.973541 313.872314,490.555359 
	C313.853882,502.707184 313.837708,514.859131 313.871643,527.010925 
	C313.897186,536.165222 316.013000,537.993774 325.349701,537.164917 
	C326.489624,537.063782 327.646240,537.151184 329.242004,537.151184 
	C330.277710,542.632629 331.313751,548.115967 332.429962,554.023438 
	C321.591095,556.790039 311.311371,557.664795 301.438263,552.655701 
	C294.880981,549.328918 291.211670,543.455444 290.872986,536.188477 
	C290.338898,524.728394 290.398376,513.239807 290.255035,501.762695 
	C290.190918,496.628754 290.244232,491.493347 290.244232,485.813263 
	C286.176147,485.632263 282.458649,485.466827 278.494812,485.290436 
	C278.494812,479.454712 278.494812,474.024994 278.494812,467.716736 
	C281.210663,467.716736 283.948608,467.716736 287.171539,467.708130 
z"/>
<path fill="#4280EA" opacity="1.000000" stroke="none" 
	d="
M615.608704,481.499451 
	C615.607422,476.762543 615.607422,472.474304 615.607422,468.302826 
	C616.662231,468.028717 617.132629,467.824310 617.614197,467.793457 
	C627.646484,467.150452 627.646729,467.154358 627.646790,456.759247 
	C627.646790,453.622162 627.646790,450.485046 627.646790,447.138184 
	C635.573486,447.138184 642.999634,447.138184 650.906250,447.138184 
	C650.906250,453.906158 650.906250,460.489563 650.906250,467.600739 
	C656.456055,467.600739 661.541565,467.600739 666.969116,467.600739 
	C666.969116,473.691315 666.969116,479.248718 666.969116,485.345490 
	C661.830872,485.345490 656.748657,485.345490 651.005127,485.345490 
	C651.005127,491.465942 651.005005,497.076141 651.005188,502.686340 
	C651.005432,511.010406 650.961731,519.334778 651.018799,527.658508 
	C651.074707,535.810486 653.561523,537.988464 661.738525,537.272278 
	C663.192688,537.144836 664.655457,537.115356 666.457214,537.023071 
	C667.528503,542.621887 668.550293,547.961914 669.559387,553.235962 
	C660.248352,558.487122 641.969727,556.682495 634.583313,549.771118 
	C630.254578,545.720703 628.008179,540.558350 627.929382,534.656738 
	C627.740601,520.509766 627.728149,506.360382 627.648193,492.211975 
	C627.637085,490.250153 627.646667,488.288177 627.646667,485.520294 
	C624.397583,485.520294 621.626282,485.384369 618.874573,485.558319 
	C616.091064,485.734222 615.357849,484.362152 615.608704,481.499451 
z"/>
<path fill="#4281EC" opacity="1.000000" stroke="none" 
	d="
M723.998535,388.884399 
	C723.998535,351.972809 723.998535,315.546539 723.998535,278.889191 
	C731.849487,278.889191 739.131897,278.889191 746.880676,278.889191 
	C746.880676,317.416077 746.880676,355.920166 746.880676,394.712738 
	C739.469360,394.712738 732.053528,394.712738 723.998535,394.712738 
	C723.998535,392.902039 723.998535,391.135895 723.998535,388.884399 
z"/>
<path fill="#4281EC" opacity="1.000000" stroke="none" 
	d="
M592.099243,307.740143 
	C598.545959,307.739136 604.503662,307.739136 610.785156,307.739136 
	C610.785156,336.853149 610.785156,365.555664 610.785156,394.629333 
	C603.354614,394.629333 595.833435,394.629333 588.043945,394.629333 
	C587.969666,393.347382 587.847839,392.220978 587.847412,391.094543 
	C587.836426,364.811890 587.858276,338.529175 587.809082,312.246613 
	C587.803955,309.505035 587.798523,307.104523 592.099243,307.740143 
z"/>
<path fill="#4281EC" opacity="1.000000" stroke="none" 
	d="
M181.384338,382.989502 
	C181.384338,387.121826 181.384338,390.756592 181.384338,394.693298 
	C173.556854,394.693298 166.136826,394.693298 158.356918,394.693298 
	C158.356918,365.903625 158.356918,337.068939 158.356918,308.004761 
	C165.941040,308.004761 173.340683,308.004761 181.384323,308.004761 
	C181.384323,333.007568 181.384323,357.749725 181.384338,382.989502 
z"/>
<path fill="#417FE8" opacity="1.000000" stroke="none" 
	d="
M161.880341,274.738953 
	C167.371689,271.328033 172.550568,271.270020 177.587891,274.777466 
	C181.312332,277.370728 182.946671,281.041656 182.435791,285.558563 
	C181.851395,290.725433 177.642349,295.036163 172.425522,295.957092 
	C166.597534,296.985901 160.966904,294.494080 158.324783,289.716827 
	C155.646118,284.873474 156.758774,279.840942 161.880341,274.738953 
z"/>
<path fill="#417FE9" opacity="1.000000" stroke="none" 
	d="
M586.910034,282.379395 
	C589.257935,275.213684 594.370422,271.578918 600.669800,272.214691 
	C606.558044,272.809021 611.376343,277.064758 612.094604,282.305450 
	C613.062134,289.365356 608.150024,295.449493 600.982605,296.068634 
	C592.433228,296.807220 586.968689,291.666565 586.910034,282.379395 
z"/>
<path fill="#0B0D13" opacity="1.000000" stroke="none" 
	d="
M131.270844,537.658936 
	C123.600098,537.043091 118.889069,532.904907 116.306015,526.441895 
	C112.391541,516.647644 112.373001,506.615784 116.132385,496.793701 
	C118.853561,489.684113 124.104919,485.456390 132.034790,485.341522 
	C139.426636,485.234467 145.372253,489.268188 148.327713,497.016815 
	C151.952835,506.521088 151.947189,516.269714 148.312439,525.766907 
	C145.460007,533.219910 140.069489,537.693604 131.270844,537.658936 
z"/>
<path fill="#0B0D13" opacity="1.000000" stroke="none" 
	d="
M212.481720,533.991943 
	C210.932327,525.411011 213.630951,521.213379 221.885712,519.172424 
	C225.419662,518.298645 229.069427,517.901123 232.655228,517.226990 
	C236.035980,516.591431 239.401840,515.876648 242.776871,515.196167 
	C244.776779,527.271606 241.658798,534.835999 233.271942,538.479980 
	C225.171783,541.999390 217.106750,540.377502 212.481720,533.991943 
z"/>
<path fill="#0B0F15" opacity="1.000000" stroke="none" 
	d="
M341.808350,356.967468 
	C344.787140,356.298492 347.341980,355.674927 349.890106,355.052979 
	C353.902740,370.349518 344.210358,381.840607 329.050049,380.010010 
	C323.377167,379.325012 319.513489,375.960815 318.986084,371.247070 
	C318.403351,366.038971 320.706757,361.986298 326.296539,360.215454 
	C331.174469,358.670074 336.343811,358.044708 341.808350,356.967468 
z"/>
<path fill="#0B0F15" opacity="1.000000" stroke="none" 
	d="
M680.725952,361.785767 
	C680.745422,375.101074 670.421814,381.206146 659.254944,380.019257 
	C653.563660,379.414429 649.621399,376.110413 649.005920,371.453949 
	C648.296509,366.086578 650.668213,361.793182 656.573059,360.146179 
	C664.207642,358.016602 672.086914,356.764160 680.727905,354.952271 
	C680.727905,357.227478 680.727905,359.288696 680.725952,361.785767 
z"/>
<path fill="#0B0F15" opacity="1.000000" stroke="none" 
	d="
M369.599243,538.746704 
	C365.276947,536.455750 363.550323,533.165100 363.979401,528.690308 
	C364.420929,524.085632 367.326569,521.241821 371.355713,520.194519 
	C379.186005,518.159180 387.177155,516.742432 395.102692,515.069214 
	C398.458679,533.067322 386.660492,544.112976 369.599243,538.746704 
z"/>
<path fill="#0C1017" opacity="1.000000" stroke="none" 
	d="
M566.177734,484.244324 
	C578.444458,485.510376 583.722046,490.660400 584.804810,502.370178 
	C572.797607,502.370178 560.827026,502.370178 548.853577,502.370178 
	C548.823120,492.333649 554.639038,486.195831 566.177734,484.244324 
z"/>
</svg>