<?xml version="1.0" encoding="UTF-8"?>
<svg version="1.1" xmlns="http://www.w3.org/2000/svg" width="200" height="200" viewBox="-50 -50 300 300">
<path d="M0 0 C8.46728749 4.10996426 16.53839546 8.58728294 24.5625 13.5 C32.27597638 18.20507801 40.03469594 22.73427025 48 27 C50.23988927 28.21213646 52.46588505 29.44165318 54.6875 30.6875 C56.20923828 31.52861328 56.20923828 31.52861328 57.76171875 32.38671875 C58.50035156 32.91910156 59.23898438 33.45148437 60 34 C60 34.99 60 35.98 60 37 C59.46334717 37.30591064 58.92669434 37.61182129 58.3737793 37.92700195 C48.65273282 43.47023803 38.93640433 49.02139537 29.25 54.625 C28.48196045 55.06859863 27.7139209 55.51219727 26.92260742 55.96923828 C22.9772041 58.25361639 19.04893385 60.56281654 15.140625 62.91015625 C14.36041992 63.37663574 13.58021484 63.84311523 12.77636719 64.32373047 C11.29441177 65.21156862 9.81570306 66.10485614 8.34082031 67.00439453 C3.33386225 70 3.33386225 70 0 70 C0 64.06 0 58.12 0 52 C-24.47923513 52.47440378 -41.33487232 57.22416827 -61.125 72.13671875 C-65.73621031 75.58922073 -70.52664362 78.75592085 -75.34130859 81.9152832 C-78.31807276 83.7687708 -78.31807276 83.7687708 -81 86 C-79.77990234 86.76570313 -79.77990234 86.76570313 -78.53515625 87.546875 C-70.89203879 92.38363247 -63.4421777 97.42683125 -56.12719727 102.74902344 C-49.7685569 107.32239163 -43.11677523 111.36254782 -35.8125 114.25 C-35.03519531 114.56453125 -34.25789063 114.8790625 -33.45703125 115.203125 C-28.77703619 116.72096124 -24.05902618 117.13218719 -19.1640625 117.31640625 C-18.10058594 117.35830078 -17.03710938 117.40019531 -15.94140625 117.44335938 C-14.84699219 117.48267578 -13.75257812 117.52199219 -12.625 117.5625 C-10.94857422 117.62727539 -10.94857422 117.62727539 -9.23828125 117.69335938 C-6.49231618 117.79897342 -3.74617327 117.89994563 -1 118 C-1 112.06 -1 106.12 -1 100 C2.28273587 101.31309435 4.87749701 102.40295269 7.8203125 104.171875 C8.51471436 104.5858252 9.20911621 104.99977539 9.92456055 105.42626953 C10.65070557 105.86310059 11.37685059 106.29993164 12.125 106.75 C17.78286373 110.11764712 23.46615306 113.39230581 29.265625 116.51171875 C34.30582085 119.25502535 39.27267864 122.12704187 44.24365234 124.99316406 C45.98648713 125.99225367 47.73639542 126.97782214 49.48828125 127.9609375 C50.56464844 128.57195312 51.64101562 129.18296875 52.75 129.8125 C53.71421875 130.35519531 54.6784375 130.89789063 55.671875 131.45703125 C58 133 58 133 60 136 C53.52766137 139.71290136 47.04850387 143.41281084 40.546875 147.07421875 C21.68834286 157.63850978 21.68834286 157.63850978 3.1640625 168.7734375 C1 170 1 170 -1 170 C-1 164.72 -1 159.44 -1 154 C-2.65 154.33 -4.3 154.66 -6 155 C-9.3368044 155.20295411 -12.65967839 155.09850814 -16 155 C-17.04414062 154.97164062 -18.08828125 154.94328125 -19.1640625 154.9140625 C-43.95833644 153.71709755 -63.38902376 143.53333034 -83.1796875 129.27734375 C-84.97356369 127.95168175 -84.97356369 127.95168175 -87 127 C-87 126.34 -87 125.68 -87 125 C-87.65613281 124.77828125 -88.31226563 124.5565625 -88.98828125 124.328125 C-92.22106927 122.9025116 -94.97509271 121.1435459 -97.92553711 119.21655273 C-111.11823761 110.66301232 -123.49647722 106.81882232 -139 104 C-139 91.79 -139 79.58 -139 67 C-134.17375 65.9171875 -134.17375 65.9171875 -129.25 64.8125 C-111.16372853 60.56685731 -97.05631801 52.12827968 -82.19140625 41.296875 C-73.44217687 35 -73.44217687 35 -71 35 C-71 34.34 -71 33.68 -71 33 C-47.95015262 19.09739823 -26.65014893 15.3660317 0 16 C0 10.72 0 5.44 0 0 Z " fill="#909FB3" transform="translate(139,12)"/>
</svg>
