<svg version="1.1" id="Layer_1" xmlns="http://www.w3.org/2000/svg" xmlns:xlink="http://www.w3.org/1999/xlink" width="100" height="100"
	viewBox="-45 -30 400 400" enable-background="new -45 30 400 400" xml:space="preserve">
<path fill="#1FBAD6" opacity="1.000000" stroke="none" 
	d="
M1.000002,125.000000 
	C1.000000,124.555557 1.000000,124.111107 1.346229,123.214783 
	C2.465639,121.393867 3.606867,120.112236 3.955842,118.642487 
	C8.059768,101.358276 14.677763,85.161957 24.278017,70.175514 
	C34.775894,53.787853 47.958385,39.914383 63.846897,28.795633 
	C80.300201,17.281633 98.340233,9.044086 118.132217,5.001148 
	C125.071045,3.583742 132.043106,2.329012 139.000000,1.000000 
	C146.020950,1.000000 153.041901,1.000000 160.733002,1.368227 
	C224.048599,8.270646 268.929688,40.267204 290.924805,99.053513 
	C313.031403,158.137848 299.837982,212.021591 257.020874,258.959167 
	C262.288391,263.747192 267.749146,268.337280 272.784119,273.354584 
	C290.947601,291.454315 308.967682,309.697968 327.026917,328.165283 
	C327.007935,328.628876 327.003967,328.814423 327.000000,329.000000 
	C258.645782,329.000000 190.291550,329.000000 121.468658,328.531342 
	C121.000000,260.581024 121.000000,193.099365 121.000000,125.617699 
	C121.850388,125.057259 122.700775,124.496826 123.551163,123.936386 
	C147.758728,149.603134 171.966293,175.269897 196.385727,201.161285 
	C209.835144,187.762131 216.711044,173.096069 217.909973,156.017853 
	C218.875351,142.266464 215.539032,129.356247 208.203537,117.571815 
	C195.473145,97.120499 176.942017,86.343819 153.028427,85.071938 
	C139.942825,84.375961 127.743256,87.864319 116.580185,94.795700 
	C96.077507,107.526230 84.495888,126.179543 84.223976,150.053986 
	C83.544708,209.695770 84.000000,269.350464 84.000000,329.000000 
	C56.376617,329.000000 28.753233,329.000000 1.000000,329.000000 
	C1.000000,263.645813 1.000000,198.291565 1.346681,132.302856 
	C2.067829,129.952103 2.585621,128.246918 2.720070,126.512024 
	C2.755474,126.055191 1.605590,125.506500 1.000002,125.000000 
z"/>
<path fill="#FFFFFF" opacity="1.000000" stroke="none" 
	d="
M327.041931,327.887268 
	C308.967682,309.697968 290.947601,291.454315 272.784119,273.354584 
	C267.749146,268.337280 262.288391,263.747192 257.020874,258.959167 
	C299.837982,212.021591 313.031403,158.137848 290.924805,99.053513 
	C268.929688,40.267204 224.048599,8.270646 161.201569,1.368227 
	C216.617325,1.000000 272.234650,1.000000 328.000000,1.000000 
	C328.000000,109.687515 328.000000,218.375107 327.758789,327.517517 
	C327.517578,327.972351 327.041931,327.887268 327.041931,327.887268 
z"/>
<path fill="#FFFFFF" opacity="1.000000" stroke="none" 
	d="
M84.468658,329.000000 
	C84.000000,269.350464 83.544708,209.695770 84.223976,150.053986 
	C84.495888,126.179543 96.077507,107.526230 116.580185,94.795700 
	C127.743256,87.864319 139.942825,84.375961 153.028427,85.071938 
	C176.942017,86.343819 195.473145,97.120499 208.203537,117.571815 
	C215.539032,129.356247 218.875351,142.266464 217.909973,156.017853 
	C216.711044,173.096069 209.835144,187.762131 196.385727,201.161285 
	C171.966293,175.269897 147.758728,149.603134 123.551163,123.936386 
	C122.700775,124.496826 121.850388,125.057259 121.000000,125.617699 
	C121.000000,193.099365 121.000000,260.581024 121.000000,328.531342 
	C108.979103,329.000000 96.958214,329.000000 84.468658,329.000000 
z"/>
<path fill="#FFFFFF" opacity="1.000000" stroke="none" 
	d="
M138.531342,1.000000 
	C132.043106,2.329012 125.071045,3.583742 118.132217,5.001148 
	C98.340233,9.044086 80.300201,17.281633 63.846897,28.795633 
	C47.958385,39.914383 34.775894,53.787853 24.278017,70.175514 
	C14.677763,85.161957 8.059768,101.358276 3.955842,118.642487 
	C3.606867,120.112236 2.465639,121.393867 1.346229,122.881447 
	C1.000000,82.401863 1.000000,41.803730 1.000000,1.000000 
	C46.687355,1.000000 92.375023,1.000000 138.531342,1.000000 
z"/>
<path fill="#FFFFFF" opacity="1.000000" stroke="none" 
	d="
M1.000002,125.437500 
	C1.605590,125.506500 2.755474,126.055191 2.720070,126.512024 
	C2.585621,128.246918 2.067829,129.952103 1.346681,131.834198 
	C1.000000,129.958328 1.000000,127.916664 1.000002,125.437500 
z"/>
<path fill="#1FBAD6" opacity="1.000000" stroke="none" 
	d="
M327.026917,328.165283 
	C327.041931,327.887268 327.517578,327.972351 327.758789,327.986176 
	C328.000000,328.333344 328.000000,328.666656 327.500000,329.000000 
	C327.003967,328.814423 327.007935,328.628876 327.026917,328.165283 
z"/>
</svg>